<svg width="21" height="20" viewBox="0 0 21 20" fill="none" xmlns="http://www.w3.org/2000/svg">
<path fill-rule="evenodd" clip-rule="evenodd" d="M10.5 1.66667C10.9602 1.66667 11.3333 2.03976 11.3333 2.5V9.16667H18C18.4602 9.16667 18.8333 9.53976 18.8333 10C18.8333 10.4602 18.4602 10.8333 18 10.8333H11.3333V17.5C11.3333 17.9602 10.9602 18.3333 10.5 18.3333C10.0398 18.3333 9.66666 17.9602 9.66666 17.5V10.8333H2.99999C2.53975 10.8333 2.16666 10.4602 2.16666 10C2.16666 9.53976 2.53975 9.16667 2.99999 9.16667H9.66666V2.5C9.66666 2.03976 10.0398 1.66667 10.5 1.66667Z" fill="white"/>
</svg>
