<svg width="20" height="20" viewBox="0 0 20 20" fill="none" xmlns="http://www.w3.org/2000/svg">
<path fill-rule="evenodd" clip-rule="evenodd" d="M7.93666 17.0476C8.37826 16.9179 8.84134 17.1708 8.97097 17.6124C9.02316 17.7902 9.13153 17.9463 9.27986 18.0574C9.42819 18.1684 9.60849 18.2284 9.79378 18.2284C9.97906 18.2284 10.1594 18.1684 10.3077 18.0574C10.456 17.9463 10.5644 17.7902 10.6166 17.6124C10.7462 17.1708 11.2093 16.9179 11.6509 17.0476C12.0925 17.1772 12.3454 17.6403 12.2158 18.0819C12.0621 18.6052 11.7431 19.0647 11.3065 19.3916C10.8699 19.7184 10.3392 19.8951 9.79378 19.8951C9.24837 19.8951 8.71763 19.7184 8.28102 19.3916C7.84441 19.0647 7.52541 18.6052 7.37179 18.0819C7.24215 17.6403 7.49505 17.1772 7.93666 17.0476Z" fill="#576473"/>
<path fill-rule="evenodd" clip-rule="evenodd" d="M9.79171 0C10.2519 0 10.625 0.373096 10.625 0.833333V2.65625C10.625 3.11649 10.2519 3.48958 9.79171 3.48958C9.33147 3.48958 8.95837 3.11649 8.95837 2.65625V0.833333C8.95837 0.373096 9.33147 0 9.79171 0Z" fill="#576473"/>
<path fill-rule="evenodd" clip-rule="evenodd" d="M9.79169 3.48958C8.40115 3.48958 7.06756 4.04197 6.08429 5.02524C5.10103 6.0085 4.54864 7.34209 4.54864 8.73264C4.54864 11.3633 4.23724 13.1156 3.90692 14.2349C3.8704 14.3587 3.83364 14.4747 3.79705 14.5833H15.7192C15.7066 14.5456 15.694 14.507 15.6814 14.4674C15.3434 13.4021 15.0347 11.6396 15.0347 8.73264C15.0347 7.34209 14.4824 6.0085 13.4991 5.02524C12.5158 4.04197 11.1822 3.48958 9.79169 3.48958ZM9.79169 1.82291C7.95912 1.82291 6.20161 2.5509 4.90578 3.84672C3.60996 5.14255 2.88197 6.90006 2.88197 8.73264C2.88197 11.2337 2.58573 12.8234 2.30841 13.7632C2.16984 14.2328 2.03597 14.5401 1.94598 14.7184C1.90096 14.8076 1.86677 14.8648 1.84823 14.8941C1.84079 14.9058 1.83585 14.9131 1.83371 14.9162C1.64616 15.1658 1.6137 15.5 1.75085 15.7816C1.89044 16.0682 2.18127 16.25 2.50003 16.25H17.0834C17.437 16.25 17.7522 16.0268 17.8695 15.6931C17.9799 15.3793 17.8926 15.0321 17.6523 14.8077C17.6438 14.7973 17.625 14.7728 17.5983 14.7305C17.5282 14.6194 17.4041 14.3858 17.27 13.9633C17.0004 13.1137 16.7014 11.5343 16.7014 8.73264C16.7014 6.90006 15.9734 5.14255 14.6776 3.84672C13.3818 2.5509 11.6243 1.82291 9.79169 1.82291Z" fill="#576473"/>
</svg>
