<svg width="20" height="20" viewBox="0 0 20 20" fill="none" xmlns="http://www.w3.org/2000/svg">
<path fill-rule="evenodd" clip-rule="evenodd" d="M10 1.66667C5.39763 1.66667 1.66667 5.39763 1.66667 10C1.66667 14.6024 5.39763 18.3333 10 18.3333C14.6024 18.3333 18.3333 14.6024 18.3333 10C18.3333 5.39763 14.6024 1.66667 10 1.66667ZM0 10C0 4.47715 4.47715 0 10 0C15.5228 0 20 4.47715 20 10C20 15.5228 15.5228 20 10 20C4.47715 20 0 15.5228 0 10ZM10.4911 4.27082C11.0176 4.27082 11.6553 4.36009 12.2108 4.7136C12.8032 5.0906 13.2046 5.70605 13.325 6.54881C13.4407 7.35907 13.2939 8.05004 12.9699 8.6147C12.6535 9.16627 12.1988 9.54478 11.7745 9.80045C11.1542 10.1743 10.8333 10.6382 10.8333 11.0246V11.6667C10.8333 12.1269 10.4602 12.5 10 12.5C9.53976 12.5 9.16667 12.1269 9.16667 11.6667V11.0246C9.16667 9.75582 10.1169 8.8535 10.9142 8.37298C11.1743 8.21624 11.3885 8.02202 11.5243 7.78531C11.6526 7.56169 11.7414 7.24883 11.675 6.78451C11.6169 6.37726 11.4602 6.21146 11.316 6.11971C11.1349 6.00447 10.8574 5.93749 10.4911 5.93749C10.1342 5.93749 9.76893 6.00104 9.48125 6.07048C9.3403 6.1045 9.22447 6.13834 9.14573 6.16302C9.10649 6.17532 9.07685 6.18523 9.05832 6.19157L9.03919 6.19824L9.03809 6.19862C9.03793 6.19868 9.03777 6.19874 9.03761 6.1988C9.03784 6.19871 9.03809 6.19862 8.75 5.41667L8.46191 4.63472C8.03005 4.79382 7.80894 5.2729 7.96805 5.70476C8.1271 6.13646 8.60588 6.35756 9.03761 6.1988M8.75 5.41667C8.46191 4.63472 8.46218 4.63461 8.46247 4.63451L8.46311 4.63427L8.46463 4.63372L8.46861 4.63227L8.4803 4.62807C8.48972 4.62472 8.50237 4.62028 8.51806 4.6149C8.54941 4.60416 8.59301 4.58965 8.64724 4.57265C8.75544 4.53874 8.90747 4.49445 9.09018 4.45035C9.44982 4.36353 9.9551 4.27083 10.4911 4.27082M10 13.3333C10.4602 13.3333 10.8333 13.7064 10.8333 14.1667V14.5833C10.8333 15.0436 10.4602 15.4167 10 15.4167C9.53976 15.4167 9.16667 15.0436 9.16667 14.5833V14.1667C9.16667 13.7064 9.53976 13.3333 10 13.3333Z" fill="#576473"/>
</svg>
