<svg width="20" height="20" viewBox="0 0 20 20" fill="none" xmlns="http://www.w3.org/2000/svg">
<path fill-rule="evenodd" clip-rule="evenodd" d="M5.83333 3.33333C5.83333 1.95262 6.95262 0.833332 8.33333 0.833332H11.6667C13.0474 0.833332 14.1667 1.95262 14.1667 3.33333V3.75C15.5474 3.75 16.6667 4.86929 16.6667 6.25V7.5H17.5C18.8807 7.5 20 8.61929 20 10V16.6667C20 18.0474 18.8807 19.1667 17.5 19.1667H2.5C1.11929 19.1667 0 18.0474 0 16.6667V10C0 8.61929 1.11929 7.5 2.5 7.5H3.33333V6.25C3.33333 4.86929 4.45262 3.75 5.83333 3.75V3.33333ZM7.5 3.75H12.5V3.33333C12.5 2.87309 12.1269 2.5 11.6667 2.5H8.33333C7.8731 2.5 7.5 2.87309 7.5 3.33333V3.75ZM5 7.5H15V6.25C15 5.78976 14.6269 5.41667 14.1667 5.41667H5.83333C5.3731 5.41667 5 5.78976 5 6.25V7.5ZM2.5 9.16666C2.03976 9.16666 1.66667 9.53976 1.66667 10V16.6667C1.66667 17.1269 2.03976 17.5 2.5 17.5H17.5C17.9602 17.5 18.3333 17.1269 18.3333 16.6667V10C18.3333 9.53976 17.9602 9.16666 17.5 9.16666H2.5Z" fill="#576473"/>
</svg>
