<svg width="20" height="20" viewBox="0 0 20 20" fill="none" xmlns="http://www.w3.org/2000/svg">
<path fill-rule="evenodd" clip-rule="evenodd" d="M5.83334 0C6.29358 0 6.66668 0.373096 6.66668 0.833333V1.66667H13.3333V0.833333C13.3333 0.373096 13.7064 0 14.1667 0C14.6269 0 15 0.373096 15 0.833333V1.66667H15.8333C17.6743 1.66667 19.1667 3.15905 19.1667 5V15.8333C19.1667 17.6743 17.6743 19.1667 15.8333 19.1667H4.16668C2.32573 19.1667 0.833344 17.6743 0.833344 15.8333V5C0.833344 3.15905 2.32573 1.66667 4.16668 1.66667H5.00001V0.833333C5.00001 0.373096 5.37311 0 5.83334 0ZM4.16668 3.33333C3.2462 3.33333 2.50001 4.07953 2.50001 5V5.83333H17.5V5C17.5 4.07953 16.7538 3.33333 15.8333 3.33333H4.16668ZM17.5 7.5H2.50001V15.8333C2.50001 16.7538 3.2462 17.5 4.16668 17.5H15.8333C16.7538 17.5 17.5 16.7538 17.5 15.8333V7.5ZM5.41668 10.8333C5.41668 10.3731 5.78977 10 6.25001 10H7.91668C8.37691 10 8.75001 10.3731 8.75001 10.8333C8.75001 11.2936 8.37691 11.6667 7.91668 11.6667H6.25001C5.78977 11.6667 5.41668 11.2936 5.41668 10.8333ZM11.25 10.8333C11.25 10.3731 11.6231 10 12.0833 10H13.75C14.2102 10 14.5833 10.3731 14.5833 10.8333C14.5833 11.2936 14.2102 11.6667 13.75 11.6667H12.0833C11.6231 11.6667 11.25 11.2936 11.25 10.8333ZM5.41668 14.1667C5.41668 13.7064 5.78977 13.3333 6.25001 13.3333H7.91668C8.37691 13.3333 8.75001 13.7064 8.75001 14.1667C8.75001 14.6269 8.37691 15 7.91668 15H6.25001C5.78977 15 5.41668 14.6269 5.41668 14.1667ZM11.25 14.1667C11.25 13.7064 11.6231 13.3333 12.0833 13.3333H13.75C14.2102 13.3333 14.5833 13.7064 14.5833 14.1667C14.5833 14.6269 14.2102 15 13.75 15H12.0833C11.6231 15 11.25 14.6269 11.25 14.1667Z" fill="#576473"/>
</svg>
