<svg width="20" height="20" viewBox="0 0 20 20" fill="none" xmlns="http://www.w3.org/2000/svg">
<g clip-path="url(#clip0_4033_100)">
<path fill-rule="evenodd" clip-rule="evenodd" d="M10 2.49998C5.85787 2.49998 2.50001 5.85784 2.50001 9.99998C2.50001 14.1421 5.85787 17.5 10 17.5C14.1421 17.5 17.5 14.1421 17.5 9.99998C17.5 5.85784 14.1421 2.49998 10 2.49998ZM0.833344 9.99998C0.833344 4.93737 4.9374 0.833313 10 0.833313C15.0626 0.833313 19.1667 4.93737 19.1667 9.99998C19.1667 15.0626 15.0626 19.1666 10 19.1666C4.9374 19.1666 0.833344 15.0626 0.833344 9.99998Z" fill="#576473"/>
<path fill-rule="evenodd" clip-rule="evenodd" d="M11.4226 6.9107C11.0972 6.58527 10.5695 6.58527 10.2441 6.9107L7.7441 9.4107C7.41866 9.73614 7.41866 10.2638 7.7441 10.5892L10.2441 13.0892C10.5695 13.4147 11.0972 13.4147 11.4226 13.0892C11.748 12.7638 11.748 12.2361 11.4226 11.9107L9.51186 9.99996L11.4226 8.08921C11.748 7.76378 11.748 7.23614 11.4226 6.9107Z" fill="#576473"/>
</g>
<defs>
<clipPath id="clip0_4033_100">
<rect width="20" height="20" fill="white"/>
</clipPath>
</defs>
</svg>
