<svg width="20" height="20" viewBox="0 0 20 20" fill="none" xmlns="http://www.w3.org/2000/svg">
<path fill-rule="evenodd" clip-rule="evenodd" d="M4.99999 4.16667C4.07952 4.16667 3.33332 4.91286 3.33332 5.83333C3.33332 6.75381 4.07952 7.5 4.99999 7.5C5.92046 7.5 6.66666 6.75381 6.66666 5.83333C6.66666 4.91286 5.92046 4.16667 4.99999 4.16667ZM1.66666 5.83333C1.66666 3.99238 3.15904 2.5 4.99999 2.5C6.55319 2.5 7.85827 3.56231 8.22831 5H16.6667C17.1269 5 17.5 5.3731 17.5 5.83333C17.5 6.29357 17.1269 6.66667 16.6667 6.66667H8.22831C7.85827 8.10436 6.55319 9.16667 4.99999 9.16667C3.15904 9.16667 1.66666 7.67428 1.66666 5.83333ZM14.1667 12.5C13.2462 12.5 12.5 13.2462 12.5 14.1667C12.5 15.0871 13.2462 15.8333 14.1667 15.8333C15.0871 15.8333 15.8333 15.0871 15.8333 14.1667C15.8333 13.2462 15.0871 12.5 14.1667 12.5ZM10.9383 13.3333C11.3084 11.8956 12.6135 10.8333 14.1667 10.8333C16.0076 10.8333 17.5 12.3257 17.5 14.1667C17.5 16.0076 16.0076 17.5 14.1667 17.5C12.6135 17.5 11.3084 16.4377 10.9383 15H2.49999C2.03975 15 1.66666 14.6269 1.66666 14.1667C1.66666 13.7064 2.03975 13.3333 2.49999 13.3333H10.9383Z" fill="#576473"/>
</svg>
