<svg width="24" height="25" viewBox="0 0 24 25" fill="none" xmlns="http://www.w3.org/2000/svg">
<path fill-rule="evenodd" clip-rule="evenodd" d="M12 2C7.02944 2 3 6.02944 3 11C3 11.8594 3.31024 12.8547 3.89117 13.9441C4.46762 15.0251 5.27596 16.1343 6.18715 17.2035C8.00985 19.3423 10.1664 21.2311 11.4666 22.3004C11.7823 22.5601 12.2177 22.5601 12.5334 22.3004C13.8336 21.2311 15.9902 19.3423 17.8128 17.2035C18.724 16.1343 19.5324 15.0251 20.1088 13.9441C20.6898 12.8547 21 11.8594 21 11C21 6.02944 16.9706 2 12 2ZM1 11C1 4.92487 5.92487 0 12 0C18.0751 0 23 4.92487 23 11C23 12.3136 22.5362 13.6426 21.8736 14.8851C21.2065 16.1361 20.3018 17.3664 19.3351 18.5008C17.4018 20.7693 15.1427 22.7439 13.8039 23.8451C12.75 24.7119 11.25 24.7119 10.1961 23.8451C8.85726 22.7439 6.59816 20.7693 4.66494 18.5008C3.69817 17.3664 2.79349 16.1361 2.12641 14.8851C1.4638 13.6426 1 12.3136 1 11ZM12 9C10.8954 9 10 9.89543 10 11C10 12.1046 10.8954 13 12 13C13.1046 13 14 12.1046 14 11C14 9.89543 13.1046 9 12 9ZM8 11C8 8.79086 9.79086 7 12 7C14.2091 7 16 8.79086 16 11C16 13.2091 14.2091 15 12 15C9.79086 15 8 13.2091 8 11Z" fill="#141F2B"/>
</svg>
