<svg width="18" height="16" viewBox="0 0 18 16" fill="none" xmlns="http://www.w3.org/2000/svg">
<path fill-rule="evenodd" clip-rule="evenodd" d="M5.08223 2.22124C6.12614 1.22271 7.53591 0.666668 9.00001 0.666668C10.4641 0.666668 11.8739 1.22271 12.9178 2.22124C13.9627 3.22073 14.5556 4.58281 14.5556 6.00966C14.5556 9.75116 16.0902 11.4762 16.8508 12.1101C17.203 12.4037 17.1851 12.8325 17.1124 13.0647C17.0405 13.2942 16.7949 13.6908 16.2953 13.6908H12.3299C12.1958 14.0171 11.9675 14.4584 11.5987 14.8692C11.0566 15.4731 10.2173 16 9.00001 16C7.78273 16 6.94344 15.4731 6.40128 14.8692C6.03254 14.4584 5.80421 14.0171 5.67008 13.6908H1.70471C1.20513 13.6908 0.959531 13.2942 0.887637 13.0647C0.814906 12.8325 0.79698 12.4037 1.14922 12.1101C1.90982 11.4762 3.44445 9.75116 3.44445 6.00966C3.44445 4.58281 4.03731 3.22073 5.08223 2.22124ZM9.00001 2C7.87088 2 6.79364 2.42932 6.00386 3.18476C5.21509 3.93924 4.77779 4.95604 4.77779 6.00966C4.77779 9.24441 3.73286 11.227 2.77959 12.3575H6.01476C6.40152 12.3575 6.71622 12.6168 6.82053 12.9549C6.88095 13.1508 7.04845 13.5941 7.39349 13.9785C7.72205 14.3445 8.21639 14.6667 9.00001 14.6667C9.78362 14.6667 10.278 14.3445 10.6065 13.9785C10.9516 13.5941 11.1191 13.1508 11.1795 12.9549C11.2838 12.6168 11.5985 12.3575 11.9853 12.3575H15.2204C14.2672 11.227 13.2222 9.24441 13.2222 6.00966C13.2222 4.95604 12.7849 3.93924 11.9962 3.18476C11.2064 2.42932 10.1291 2 9.00001 2Z" fill="#141F2B"/>
</svg>
