<svg width="20" height="21" viewBox="0 0 20 21" fill="none" xmlns="http://www.w3.org/2000/svg">
<path fill-rule="evenodd" clip-rule="evenodd" d="M19.4148 7.62114C18.1021 3.96419 14.7194 1.29376 10.6794 1.02272L9.57023 0.945953L9.58505 1.00845C8.21485 1.06438 6.91574 1.39601 5.74171 1.94935L5.72755 1.93618L5.24815 2.19895C2.12732 3.8875 0.00609969 7.18755 1.3113e-05 10.9836C4.37101e-06 10.9891 0 10.9945 0 11C0 11.1897 0.00528465 11.3782 0.0157141 11.5653C0.196743 14.814 1.92845 17.6487 4.48282 19.3416L4.89256 19.6157L4.90622 19.6072C6.39808 20.492 8.13972 21 10 21C15.5228 21 20 16.5229 20 11C20 10.1079 19.8832 9.243 19.664 8.41989L19.7035 8.40902L19.4148 7.62114ZM12.1171 2.93797C14.3351 3.51883 16.1925 4.99078 17.2837 6.94824L16.4572 6.82411C16.171 6.78113 15.8795 6.78816 15.5958 6.84489L14.178 7.12834C13.8953 7.18486 13.6035 7.09125 13.4064 6.88084L13.1244 6.57973C12.9855 6.43146 12.9182 6.23004 12.9399 6.02806L13.0041 5.43219C13.0804 4.72305 12.6782 4.05211 12.0237 3.78245L12.0325 3.75824C12.1298 3.49089 12.1563 3.20923 12.1171 2.93797ZM18.0216 8.73404C18.2247 9.45451 18.3333 10.2146 18.3333 11C18.3333 15.6024 14.6024 19.3333 10 19.3333C8.75251 19.3333 7.56905 19.0592 6.50655 18.5679C7.24912 17.8995 7.533 16.8353 7.18646 15.8677L6.79244 14.7674C6.65768 14.3912 6.43467 14.0527 6.1421 13.7804L5.80413 13.4658C5.68976 13.3593 5.60762 13.2229 5.56709 13.072L5.45893 12.6693C5.37888 12.3713 5.47009 12.0534 5.69598 11.8431L7.30495 10.3456C7.34447 10.3088 7.38747 10.2759 7.43334 10.2475L7.75118 10.0502C8.68085 9.47337 9.0814 8.3256 8.71251 7.29556C8.68716 7.22477 8.6742 7.15014 8.6742 7.07495V6.49361C8.6742 5.97144 8.5107 5.46238 8.20664 5.03786L7.56475 4.14168L7.22835 3.51546C7.17108 3.40885 7.10623 3.30671 7.0344 3.2098C7.95576 2.85886 8.95543 2.66667 10 2.66667C10.022 2.66667 10.044 2.66675 10.0659 2.66692C10.1412 2.7964 10.2311 2.91752 10.3344 3.02774L10.4612 3.16319C10.4675 3.16989 10.4695 3.17955 10.4663 3.18818C10.4663 3.18818 10.4663 3.18817 10.4663 3.18818L10.435 3.27434C10.1389 4.08772 10.544 4.98538 11.3414 5.30535L11.2828 5.84967C11.2091 6.53408 11.4374 7.21663 11.9079 7.71905L12.19 8.02015C12.7812 8.65139 13.6566 8.93222 14.5047 8.76267L15.9225 8.47922C16.0171 8.46031 16.1143 8.45797 16.2097 8.47229L17.7966 8.7106C17.8713 8.72184 17.9464 8.72964 18.0216 8.73404ZM1.66667 11C1.66667 11.1566 1.67098 11.3122 1.67951 11.4666C1.818 13.9758 3.0665 16.189 4.94219 17.6235L5.27222 17.4187C5.60601 17.2116 5.74983 16.7994 5.61738 16.4296L5.22336 15.3294C5.17844 15.2039 5.1041 15.0911 5.00658 15.0003L4.66861 14.6858C4.32549 14.3664 4.07906 13.957 3.95747 13.5043L3.84932 13.1016C3.60917 12.2075 3.88278 11.2539 4.56046 10.6232L6.16943 9.12558C6.28798 9.01524 6.41697 8.91668 6.55458 8.83129L6.87242 8.63406C7.13451 8.47144 7.24743 8.14787 7.14343 7.85749C7.05351 7.60639 7.00754 7.34167 7.00754 7.07495V6.49361C7.00754 6.31955 6.95304 6.14986 6.85168 6.00836L6.1473 5.02493L5.76012 4.30418C5.71687 4.22367 5.66067 4.15082 5.59377 4.08855C5.59377 4.08855 5.59377 4.08855 5.59377 4.08855L5.48961 3.9916C3.18955 5.47491 1.66667 8.0596 1.66667 11ZM12.0021 10.4584L12.8796 10.6578C13.1413 10.7173 13.3918 10.8185 13.6213 10.9576L14.2844 11.3595L14.3028 11.3721C15.3385 12.0782 15.4976 13.543 14.6377 14.4551L13.9553 15.1788C13.9224 15.2138 13.8925 15.2514 13.8661 15.2915L13.3574 16.0623C13.0758 16.489 12.6687 16.8178 12.1923 17.0034L11.2654 17.3645C10.4848 17.6686 9.60675 17.2724 9.31838 16.4859C9.23085 16.2472 9.20562 15.9901 9.2451 15.7389L9.41329 14.6686C9.44081 14.4934 9.39734 14.3146 9.29251 14.1716C8.58679 13.2093 8.72138 11.8695 9.60441 11.0667L9.6796 10.9984C9.67959 10.9984 9.6796 10.9984 9.6796 10.9984C10.3081 10.427 11.1875 10.2233 12.0021 10.4584ZM12.5102 12.283L11.5782 12.0712L11.55 12.0626C11.2879 11.9832 11.0034 12.0474 10.8007 12.2316L10.7255 12.3C10.7255 12.3 10.7255 12.3 10.7255 12.3C10.4735 12.529 10.4351 12.9114 10.6365 13.186C11.0038 13.6869 11.1562 14.3137 11.0598 14.9273L10.9378 15.7035L11.5873 15.4504C11.7423 15.39 11.8747 15.283 11.9664 15.1442L12.4751 14.3734C12.5544 14.2533 12.6439 14.1402 12.7426 14.0355L13.425 13.3117C13.5783 13.1492 13.5542 12.8905 13.377 12.7584L12.7575 12.383C12.681 12.3366 12.5975 12.3028 12.5102 12.283Z" fill="#576473"/>
</svg>
