<svg width="16" height="16" viewBox="0 0 16 16" fill="none" xmlns="http://www.w3.org/2000/svg">
<path fill-rule="evenodd" clip-rule="evenodd" d="M7.99998 2C6.71132 2 5.66665 3.04467 5.66665 4.33333C5.66665 5.622 6.71132 6.66667 7.99998 6.66667C9.28865 6.66667 10.3333 5.622 10.3333 4.33333C10.3333 3.04467 9.28865 2 7.99998 2ZM4.33332 4.33333C4.33332 2.30829 5.97494 0.666666 7.99998 0.666666C10.025 0.666666 11.6667 2.30829 11.6667 4.33333C11.6667 6.35838 10.025 8 7.99998 8C5.97494 8 4.33332 6.35838 4.33332 4.33333ZM7.99998 11C6.29864 11 4.68167 11.657 3.67254 12.1789C3.22498 12.4104 2.92259 12.8822 2.85421 13.4585L2.75042 14.3333H13.2495L13.1458 13.4585C13.0774 12.8822 12.775 12.4104 12.3274 12.1789C11.3183 11.657 9.70132 11 7.99998 11ZM3.05998 10.9946C4.1473 10.4322 5.98816 9.66667 7.99998 9.66667C10.0118 9.66667 11.8527 10.4322 12.94 10.9946C13.8459 11.4632 14.3586 12.3646 14.4698 13.3015L14.662 14.9215C14.6845 15.1106 14.6249 15.3004 14.4984 15.4428C14.3719 15.5852 14.1905 15.6667 14 15.6667H1.99998C1.80949 15.6667 1.6281 15.5852 1.50158 15.4428C1.37507 15.3004 1.31552 15.1106 1.33796 14.9215L1.53016 13.3015C1.64132 12.3646 2.15406 11.4632 3.05998 10.9946Z" fill="#141F2B"/>
</svg>
