<svg width="16" height="16" viewBox="0 0 16 16" fill="none" xmlns="http://www.w3.org/2000/svg">
<path fill-rule="evenodd" clip-rule="evenodd" d="M8 3.33333C7.26362 3.33333 6.66667 3.93029 6.66667 4.66667C6.66667 5.40305 7.26362 6 8 6C8.73638 6 9.33333 5.40305 9.33333 4.66667C9.33333 3.93029 8.73638 3.33333 8 3.33333ZM5.33333 4.66667C5.33333 3.19391 6.52724 2 8 2C9.47276 2 10.6667 3.19391 10.6667 4.66667C10.6667 6.13943 9.47276 7.33333 8 7.33333C6.52724 7.33333 5.33333 6.13943 5.33333 4.66667ZM2.66667 6C2.29848 6 2 6.29848 2 6.66667C2 7.03486 2.29848 7.33333 2.66667 7.33333C3.03486 7.33333 3.33333 7.03486 3.33333 6.66667C3.33333 6.29848 3.03486 6 2.66667 6ZM0.666667 6.66667C0.666667 5.5621 1.5621 4.66667 2.66667 4.66667C3.77124 4.66667 4.66667 5.5621 4.66667 6.66667C4.66667 7.77124 3.77124 8.66667 2.66667 8.66667C1.5621 8.66667 0.666667 7.77124 0.666667 6.66667ZM13.3333 6C12.9651 6 12.6667 6.29848 12.6667 6.66667C12.6667 7.03486 12.9651 7.33333 13.3333 7.33333C13.7015 7.33333 14 7.03486 14 6.66667C14 6.29848 13.7015 6 13.3333 6ZM11.3333 6.66667C11.3333 5.5621 12.2288 4.66667 13.3333 4.66667C14.4379 4.66667 15.3333 5.5621 15.3333 6.66667C15.3333 7.77124 14.4379 8.66667 13.3333 8.66667C12.2288 8.66667 11.3333 7.77124 11.3333 6.66667ZM4.64353 9.82333C5.35672 8.72583 6.5936 8 8 8C9.4064 8 10.6433 8.72583 11.3565 9.82333C11.8283 9.51381 12.3932 9.33333 13 9.33333C14.6569 9.33333 16 10.6765 16 12.3333V14H0V12.3333C0 10.6765 1.34315 9.33333 3 9.33333C3.60685 9.33333 4.17166 9.51381 4.64353 9.82333ZM5.3342 11.9312C5.33362 11.954 5.33333 11.977 5.33333 12V12.6667H10.6667V12C10.6667 11.9756 10.6663 11.9512 10.6657 11.9269C10.627 10.4879 9.44831 9.33333 8 9.33333C6.55025 9.33333 5.37071 10.4902 5.3342 11.9312ZM12 12V12.6667H14.6667V12.3333C14.6667 11.4129 13.9205 10.6667 13 10.6667C12.5763 10.6667 12.1896 10.8243 11.895 11.0855C11.9561 11.347 11.9916 11.6184 11.9987 11.8968C11.9996 11.9311 12 11.9655 12 12ZM4 12.6667V12C4 11.9625 4.00051 11.9252 4.00154 11.888C4.00911 11.6126 4.04451 11.3443 4.10501 11.0855C3.81044 10.8243 3.42372 10.6667 3 10.6667C2.07953 10.6667 1.33333 11.4129 1.33333 12.3333V12.6667H4Z" fill="#141F2B"/>
</svg>
