<svg width="24" height="24" viewBox="0 0 24 24" fill="none" xmlns="http://www.w3.org/2000/svg">
<path fill-rule="evenodd" clip-rule="evenodd" d="M12 2C6.47715 2 2 6.47715 2 12C2 17.5228 6.47715 22 12 22C17.5228 22 22 17.5228 22 12C22 6.47715 17.5228 2 12 2ZM0 12C0 5.37258 5.37258 0 12 0C18.6274 0 24 5.37258 24 12C24 18.6274 18.6274 24 12 24C5.37258 24 0 18.6274 0 12ZM12 6C12.5523 6 13 6.44772 13 7V12.5858L15.2071 14.7929C15.5976 15.1834 15.5976 15.8166 15.2071 16.2071C14.8166 16.5976 14.1834 16.5976 13.7929 16.2071L11.2929 13.7071C11.1054 13.5196 11 13.2652 11 13V7C11 6.44772 11.4477 6 12 6Z" fill="#141F2B"/>
</svg>
