<svg width="20" height="20" viewBox="0 0 20 20" fill="none" xmlns="http://www.w3.org/2000/svg">
<path fill-rule="evenodd" clip-rule="evenodd" d="M5.83333 3.33334C4.91286 3.33334 4.16667 4.07953 4.16667 5.00001C4.16667 5.92048 4.91286 6.66667 5.83333 6.66667C6.75381 6.66667 7.5 5.92048 7.5 5.00001C7.5 4.07953 6.75381 3.33334 5.83333 3.33334ZM2.5 5.00001C2.5 3.15906 3.99238 1.66667 5.83333 1.66667C7.67428 1.66667 9.16667 3.15906 9.16667 5.00001C9.16667 6.84095 7.67428 8.33334 5.83333 8.33334C3.99238 8.33334 2.5 6.84095 2.5 5.00001ZM13.75 5.83334C13.0596 5.83334 12.5 6.39298 12.5 7.08334C12.5 7.77369 13.0596 8.33334 13.75 8.33334C14.4404 8.33334 15 7.77369 15 7.08334C15 6.39298 14.4404 5.83334 13.75 5.83334ZM10.8333 7.08334C10.8333 5.47251 12.1392 4.16667 13.75 4.16667C15.3608 4.16667 16.6667 5.47251 16.6667 7.08334C16.6667 8.69417 15.3608 10 13.75 10C12.1392 10 10.8333 8.69417 10.8333 7.08334ZM0 15C0 11.7783 2.61167 9.16667 5.83333 9.16667C7.8631 9.16667 9.65073 10.2034 10.6956 11.7762C11.565 11.1817 12.6172 10.8333 13.75 10.8333C16.7415 10.8333 19.1667 13.2585 19.1667 16.25V17.5H0V15ZM11.6648 14.8494C11.6513 14.3162 11.5662 13.8008 11.4188 13.3124C12.0593 12.8033 12.8687 12.5 13.75 12.5C15.6802 12.5 17.2698 13.9584 17.4771 15.8333H11.6667V15C11.6667 14.9497 11.666 14.8995 11.6648 14.8494ZM10 15C10 14.9607 9.99946 14.9216 9.99838 14.8825C9.93618 12.6357 8.09523 10.8333 5.83333 10.8333C3.53215 10.8333 1.66667 12.6988 1.66667 15V15.8333H10V15Z" fill="#576473"/>
</svg>
